<svg width="100%" height="100%" viewBox="0 0 1440 320" xmlns="http://www.w3.org/2000/svg" preserveAspectRatio="none">
  <defs>
    <linearGradient id="gridGradient" x1="0" y1="0" x2="0" y2="1">
      <stop offset="0%" stop-color="#00ccff" stop-opacity="0.1"></stop>
      <stop offset="100%" stop-color="#00ccff" stop-opacity="0.2"></stop>
    </linearGradient>
  </defs>
  <path fill="url(#gridGradient)" fill-opacity="1" d="M0,320L60,298.7C120,277,240,235,360,202.7C480,171,600,149,720,149.3C840,149,960,171,1080,176C1200,181,1320,171,1380,165.3L1440,160V320H1380C1320,320,1200,320,1080,320C960,320,840,320,720,320C600,320,480,320,360,320C240,320,120,320,60,320H0Z"></path>
</svg>
